
<svg
   xmlns:dc="http://purl.org/dc/elements/1.1/"
   xmlns:cc="http://creativecommons.org/ns#"
   xmlns:rdf="http://www.w3.org/1999/02/22-rdf-syntax-ns#"
   xmlns:svg="http://www.w3.org/2000/svg"
   xmlns="http://www.w3.org/2000/svg"
   viewBox="0 0 6906.6133 6278.7466"
   height="6278.7466"
   width="6906.6133"
   xml:space="preserve"
   id="svg2"
   version="1.1"><metadata
     id="metadata8"><rdf:RDF><cc:Work
         rdf:about=""><dc:format>image/svg+xml</dc:format><dc:type
           rdf:resource="http://purl.org/dc/dcmitype/StillImage" /></cc:Work></rdf:RDF></metadata><defs
     id="defs6" /><g
     transform="matrix(1.3333333,0,0,-1.3333333,0,6278.7467)"
     id="g10"><g
       transform="scale(0.1)"
       id="g12"><g
         transform="scale(3.17789)"
         id="g14"><path
           id="path16"
           style="fill:#100f0d;fill-opacity:1;fill-rule:nonzero;stroke:none"
           d="m 13262.3,3067.38 c 19.7,39.53 49.4,79.02 88.9,118.54 246.9,167.94 484.1,281.54 711.3,340.82 375.4,98.78 740.9,153.12 1096.5,163 98.8,9.89 192.6,4.94 281.6,-14.82 444.5,-39.52 711.2,-113.62 800.1,-222.28 39.5,-59.26 59.3,-148.18 59.3,-266.72 V 3082.2 c 0,-345.76 -93.8,-753.26 -281.5,-1222.51 -187.7,-469.24 -449.5,-847.1 -785.4,-1133.579 -49.4,-39.524 -93.9,-59.284 -133.4,-59.284 -19.7,0 -39.5,4.94 -59.2,14.821 -59.3,29.642 -74.1,83.986 -44.5,163 365.5,859.442 548.3,1457.102 548.3,1792.982 0,108.69 -19.8,187.7 -59.3,237.11 -98.8,118.54 -375.4,177.82 -829.8,177.82 -167.9,0 -365.5,-9.88 -592.7,-29.64 -247,-29.64 -474.2,-59.29 -681.7,-88.9 -59.3,0 -98.8,9.88 -118.5,29.61 -19.8,19.77 -24.7,39.53 -14.8,59.29 0,9.88 4.9,24.7 14.8,44.46 z M 7038.63,7838.82 c 0,-385.26 96.33,-693.98 288.97,-926.12 192.64,-232.17 451.97,-348.25 777.94,-348.25 29.64,0 71.62,4.94 125.96,14.82 54.34,9.88 91.38,14.82 111.14,14.82 414.9,108.66 735.96,375.41 963.19,800.19 108.66,187.7 190.16,392.68 244.5,614.97 54.31,222.25 83.96,402.56 88.9,540.86 4.94,138.3 7.42,365.52 7.42,681.61 v 370.47 C 9073.66,9602.19 8639,9562.67 8342.64,9483.65 7473.29,9236.67 7038.63,8688.41 7038.63,7838.82 Z M 4489.9,7542.46 c 0,681.65 167.94,1264.49 503.82,1748.55 335.89,484.06 795.25,849.59 1378.12,1096.59 533.43,227.2 1190.38,390.2 1970.8,489 266.72,29.6 701.38,69.1 1304.01,118.5 v 251.9 c 0,632.3 -69.16,1057 -207.46,1274.4 -207.47,296.3 -533.47,444.5 -978.01,444.5 h -118.54 c -326,-29.6 -607.54,-133.3 -844.64,-311.2 -237.08,-177.8 -390.23,-424.8 -459.37,-740.9 -39.52,-197.5 -138.3,-311.2 -296.36,-340.8 l -1704.08,207.5 c -167.94,39.5 -251.9,128.4 -251.9,266.7 0,29.6 4.91,64.2 14.79,103.7 167.94,879.2 580.39,1531.2 1237.33,1956 656.95,424.8 1425,661.9 2304.23,711.3 h 370.47 c 1126.16,0 2005.39,-291.4 2637.59,-874.3 99.2,-99.2 190.8,-205.7 274.2,-318.6 83.9,-113.6 150.6,-214.8 200,-303.7 49.4,-88.9 93.9,-217.4 133.4,-385.3 39.5,-167.9 69.1,-284 88.9,-348.2 19.7,-64.2 34.6,-202.6 44.4,-414.9 9.9,-212.4 14.9,-338.4 14.9,-377.9 V 8209.29 c 0,-256.84 37,-491.49 111.1,-703.87 74.1,-212.4 145.7,-365.52 214.9,-459.36 69.1,-93.84 182.7,-244.5 340.8,-451.97 59.2,-88.89 88.9,-167.91 88.9,-237.07 0,-79.05 -39.5,-148.18 -118.6,-207.47 -819.9,-711.26 -1264.4,-1096.54 -1333.6,-1155.83 -118.5,-88.89 -261.8,-98.77 -429.7,-29.61 -138.3,118.54 -259.3,232.14 -363.1,340.79 -103.7,108.69 -177.8,187.71 -222.3,237.11 -44.4,49.38 -116,145.7 -214.8,288.97 -98.8,143.24 -168,239.56 -207.44,288.93 -553.23,-602.6 -1096.55,-977.97 -1630.02,-1126.19 -335.88,-98.77 -750.78,-148.18 -1244.72,-148.18 -760.7,0 -1385.51,234.62 -1874.52,703.87 -489,469.27 -733.5,1133.61 -733.5,1993.05 z M 29.6359,3319.28 C 79.025,3398.29 158.05,3403.27 266.727,3334.1 2736.42,1901.67 5423.47,1185.47 8327.82,1185.47 c 1936.18,0 3847.78,360.56 5734.68,1081.73 49.3,19.73 121,49.37 214.8,88.89 93.9,39.53 160.6,69.17 200.1,88.93 148.2,59.25 264.2,29.61 348.2,-88.93 83.9,-118.53 56.8,-227.19 -81.5,-326 -177.8,-128.42 -405,-276.6 -681.6,-444.54 C 13212.9,1081.72 12264.5,691.529 11217.4,414.93 10170.2,138.301 9147.77,0 8150,0 6608.92,0 5151.78,269.205 3778.64,807.611 2405.48,1345.99 1175.57,2104.19 88.9102,3082.2 29.6359,3131.58 0,3180.98 0,3230.38 c 0,29.61 9.86922,59.26 29.6359,88.9" /></g></g></g></svg>